<svg xmlns="http://www.w3.org/2000/svg" xmlns:xlink="http://www.w3.org/1999/xlink" width="100.0" height="100.0" viewBox="-75.182136572 39.964583428 0.002453544000005081 0.0019541440000026" preserveAspectRatio="xMinYMin meet"><g transform="matrix(1,0,0,-1,0,79.93112099999999)"><path fill-rule="evenodd" fill="#66cc99" stroke="#555555" stroke-width="4.907088000010163e-05" opacity="0.6" d="M -75.1811567,39.9646743 L -75.1813836,39.9648389 L -75.1813369,39.9648768 L -75.181767,39.9651887 L -75.1818166,39.9651486 L -75.1820457,39.9653147 L -75.1814872,39.965767 L -75.1817193,39.9659353 L -75.1815749,39.9660523 L -75.1814275,39.9661717 L -75.1812049,39.9660102 L -75.1806659,39.9664467 L -75.1804216,39.9662695 L -75.1804648,39.9662345 L -75.180056,39.9659378 L -75.1800146,39.9659713 L -75.1797739,39.9657966 L -75.1800852,39.9655447 L -75.1803189,39.9657143 L -75.1802769,39.9657483 L -75.1806952,39.966052 L -75.1809764,39.9658244 L -75.1808752,39.9657509 L -75.1810202,39.9656336 L -75.1811676,39.9655143 L -75.1812624,39.9655831 L -75.1815343,39.965363 L -75.181129,39.965069 L -75.1810809,39.9651079 L -75.1808385,39.9649321 L -75.1811567,39.9646743 z" /></g></svg>